<svg width="692" height="505" viewBox="0 0 692 505" fill="none" xmlns="http://www.w3.org/2000/svg">
<path d="M350.373 234.458L328.664 291.857L163.855 232.639C184.258 178.877 204.489 125.456 224.948 71.5801L389.757 130.855C382.483 150.007 375.38 168.818 368.048 188.254C369.981 188.993 371.571 189.732 373.276 190.243L663.113 281.798C680.503 287.481 691.187 299.984 691.528 315.897C691.719 322.21 690.307 328.468 687.425 334.088C684.544 339.708 680.286 344.506 675.049 348.036C669.811 351.565 663.765 353.711 657.474 354.272C651.184 354.833 644.853 353.792 639.074 351.246C597.928 334.765 556.953 318.056 515.864 301.461L355.659 236.561L350.373 234.458Z" fill="black"/>
<path d="M372.652 458.486V504.974H44.9658V458.031H69.9715C69.9715 449.564 69.9715 441.493 69.9715 433.48C69.7344 427.602 71.55 421.824 75.1065 417.137C78.663 412.45 83.7392 409.147 89.4647 407.793C91.6133 407.347 93.8071 407.157 96.0004 407.224H320.822C324.25 407.101 327.668 407.675 330.868 408.911C334.068 410.148 336.984 412.021 339.439 414.417C341.893 416.813 343.836 419.683 345.149 422.853C346.462 426.022 347.119 429.425 347.078 432.855C347.078 439.959 347.931 447.006 348.044 454.11C348.044 457.406 349.408 458.6 352.533 458.6L372.652 458.486Z" fill="black"/>
<path d="M242.169 0.370605C245.621 1.06778 249.035 1.94044 252.398 2.98496L414.479 61.2368C417.712 62.1229 420.725 63.672 423.326 65.7857C425.927 67.8993 428.06 70.5312 429.589 73.5139C431.118 76.4966 432.009 79.7648 432.206 83.1107C432.403 86.4566 431.901 89.8067 430.733 92.9483C429.503 96.0982 427.655 98.9695 425.297 101.392C422.938 103.815 420.118 105.741 417.002 107.055C413.887 108.369 410.54 109.045 407.158 109.043C403.777 109.041 400.43 108.361 397.316 107.043L244.215 51.9733C240.464 50.5525 236.599 49.3023 232.849 47.7679C227.405 45.75 222.875 41.83 220.096 36.7322C217.318 31.6344 216.477 25.7032 217.732 20.0343C219.104 14.5409 222.235 9.64649 226.647 6.09672C231.058 2.54696 236.509 0.536186 242.169 0.370605Z" fill="black"/>
<path d="M310.763 362.953C307.808 362.446 304.886 361.762 302.012 360.907C247.303 341.281 192.631 321.618 137.998 301.916C132.74 300.241 128.214 296.816 125.174 292.211C122.133 287.606 120.761 282.099 121.285 276.605C121.81 271.112 124.201 265.964 128.058 262.018C131.916 258.072 137.008 255.566 142.488 254.917C146.482 254.385 150.544 254.774 154.365 256.053C209.567 275.717 264.73 295.513 319.856 315.442C325.269 317.303 329.843 321.03 332.758 325.955C335.674 330.88 336.741 336.683 335.769 342.323C334.617 348.116 331.498 353.334 326.942 357.093C322.385 360.852 316.67 362.922 310.763 362.953Z" fill="black"/>
<path d="M141.578 357.611C131.576 354.201 121.517 351.075 111.685 347.381C95.7722 341.357 79.8029 335.447 64.2313 328.684C52.6799 323.697 42.6729 315.711 35.2478 305.553C32.0653 301.177 28.5986 296.29 31.6675 290.721C33.1874 288.522 35.4334 286.93 38.011 286.223C40.5885 285.516 43.3327 285.74 45.7614 286.856C55.4303 288.975 64.749 292.457 73.4379 297.199C99.239 313.51 119.868 336.015 141.578 357.611Z" fill="black"/>
<path d="M129.246 379.945C113.788 383.242 98.3869 386.822 82.8721 389.72C70.6346 392.032 58.3213 393.926 45.9322 395.404C34.6639 396.68 23.2545 395.197 12.6864 391.084C7.00331 388.925 0.297044 386.595 0.353874 379.377C0.410705 372.16 7.23016 369.943 12.9132 368.011C25.2919 363.345 38.6925 362.07 51.729 364.317C77.6438 368.522 103.331 373.694 129.132 378.468L129.246 379.945Z" fill="black"/>
</svg>
